# xmcd CD database file
#
# Track frame offsets:
#	150
#	12977
#	24985
#	37575
#	48925
#	58882
#	71765
#	86180
#	96807
#	106942
#	117250
#	130690
#	141752
#	155335
#	165430
#	180127
#	190512
#	202602
#	213662
#	224010
#
# Disc length: 3140 seconds
#
# Revision: 2
# Processed by: cddbd v1.5.2PL0 Copyright (c) Steve Scherf et al.
# Submitted via: CDex 1.70beta2
#
DISCID=060c4214
DTITLE=Hank Snow - I'm Movin' On and Other Great Country Hits
DYEAR=1990
DGENRE=Country
TTITLE0=I'm Movin On
TTITLE1=Marriage Vow
TTITLE2=The Rhumba Boogie
TTITLE3=With This Ring I Thee Wed
TTITLE4=Down the Trail of Achin' Hearts
TTITLE5=The Golden Rocket
TTITLE6=Stolen Moments
TTITLE7=Unwanted Sign Upon Your Heart
TTITLE8=Wreck of the Old 97
TTITLE9=Silver Bell
TTITLE10=I Don't Hurt Anymore
TTITLE11=Music Makin' Mama From Memphis
TTITLE12=My Mother
TTITLE13=Would You Mind
TTITLE14=When Jimmie Rodgers Said Goodbye
TTITLE15=The Gold Rush is Over
TTITLE16=The Gal Who Invented Kissin'
TTITLE17=Let Me Go Lover
TTITLE18=Spanish Fire Ball
TTITLE19=One More Ride
EXTD=YEAR: 1990
EXTT0=
EXTT1=
EXTT2=
EXTT3=
EXTT4=
EXTT5=
EXTT6=
EXTT7=
EXTT8=
EXTT9=
EXTT10=
EXTT11=
EXTT12=
EXTT13=
EXTT14=
EXTT15=
EXTT16=
EXTT17=
EXTT18=
EXTT19=
PLAYORDER=
